<mxfile host="app.diagrams.net" modified="2024-02-04T15:40:14.326Z" agent="Mozilla/5.0 (Macintosh; Intel Mac OS X 10_15_7) AppleWebKit/537.36 (KHTML, like Gecko) Chrome/120.0.0.0 Safari/537.36" etag="SYc6PDXN0MfzZEbWc1ac" version="23.1.1" type="github">
  <diagram name="Page-1" id="CcI5qfxgECZwyDfbKBaG">
    <mxGraphModel dx="2205" dy="937" grid="1" gridSize="10" guides="1" tooltips="1" connect="1" arrows="1" fold="1" page="1" pageScale="1" pageWidth="850" pageHeight="1100" math="0" shadow="0">
      <root>
        <mxCell id="0" />
        <mxCell id="1" parent="0" />
        <mxCell id="d4VZksIFXC954R5tcxus-1" value="Document&#xa;Inherits from:&#xa;fe-main-template&#xa;" style="swimlane;fontStyle=2;align=center;verticalAlign=top;childLayout=stackLayout;horizontal=1;startSize=50;horizontalStack=0;resizeParent=1;resizeLast=0;collapsible=1;marginBottom=0;rounded=0;shadow=0;strokeWidth=1;fontSize=11;" vertex="1" parent="1">
          <mxGeometry x="340" width="100" height="50" as="geometry">
            <mxRectangle x="360" y="20" width="160" height="26" as="alternateBounds" />
          </mxGeometry>
        </mxCell>
        <mxCell id="d4VZksIFXC954R5tcxus-2" value="" style="endArrow=none;dashed=1;html=1;dashPattern=1 3;strokeWidth=2;rounded=0;entryX=0.5;entryY=1;entryDx=0;entryDy=0;" edge="1" parent="1">
          <mxGeometry width="50" height="50" relative="1" as="geometry">
            <mxPoint x="390" y="80" as="sourcePoint" />
            <mxPoint x="390" y="50" as="targetPoint" />
            <Array as="points">
              <mxPoint x="390" y="80" />
            </Array>
          </mxGeometry>
        </mxCell>
        <mxCell id="d4VZksIFXC954R5tcxus-4" value="" style="endArrow=none;html=1;rounded=0;exitX=0.5;exitY=0;exitDx=0;exitDy=0;" edge="1" parent="1">
          <mxGeometry width="50" height="50" relative="1" as="geometry">
            <mxPoint x="389.38" y="112" as="sourcePoint" />
            <mxPoint x="389.38" y="70" as="targetPoint" />
          </mxGeometry>
        </mxCell>
        <mxCell id="d4VZksIFXC954R5tcxus-7" value="Offcanvas Element:&#xa;&lt;div&gt;&#xa;" style="swimlane;fontStyle=0;align=center;verticalAlign=top;childLayout=stackLayout;horizontal=1;startSize=50;horizontalStack=0;resizeParent=1;resizeLast=0;collapsible=1;marginBottom=0;rounded=0;shadow=0;strokeWidth=1;fontSize=11;" vertex="1" parent="1">
          <mxGeometry x="30" y="203" width="100" height="40" as="geometry">
            <mxRectangle x="130" y="380" width="160" height="26" as="alternateBounds" />
          </mxGeometry>
        </mxCell>
        <mxCell id="d4VZksIFXC954R5tcxus-8" value="Grid Container:&#xa;&lt;div&gt;&#xa;" style="swimlane;fontStyle=0;align=center;verticalAlign=top;childLayout=stackLayout;horizontal=1;startSize=50;horizontalStack=0;resizeParent=1;resizeLast=0;collapsible=1;marginBottom=0;rounded=0;shadow=0;strokeWidth=1;fontSize=11;" vertex="1" parent="1">
          <mxGeometry x="340" y="112" width="100" height="40" as="geometry">
            <mxRectangle x="130" y="380" width="160" height="26" as="alternateBounds" />
          </mxGeometry>
        </mxCell>
        <mxCell id="d4VZksIFXC954R5tcxus-9" value="Element:&#xa;&lt;a&gt;&#xa;" style="swimlane;fontStyle=0;align=center;verticalAlign=top;childLayout=stackLayout;horizontal=1;startSize=50;horizontalStack=0;resizeParent=1;resizeLast=0;collapsible=1;marginBottom=0;rounded=0;shadow=0;strokeWidth=1;fontSize=11;" vertex="1" parent="1">
          <mxGeometry x="30" y="263" width="100" height="40" as="geometry">
            <mxRectangle x="130" y="380" width="160" height="26" as="alternateBounds" />
          </mxGeometry>
        </mxCell>
        <mxCell id="d4VZksIFXC954R5tcxus-10" value="" style="endArrow=none;html=1;rounded=0;entryX=0.5;entryY=1;entryDx=0;entryDy=0;" edge="1" parent="1" target="d4VZksIFXC954R5tcxus-8">
          <mxGeometry width="50" height="50" relative="1" as="geometry">
            <mxPoint x="390" y="183" as="sourcePoint" />
            <mxPoint x="410" y="253" as="targetPoint" />
          </mxGeometry>
        </mxCell>
        <mxCell id="d4VZksIFXC954R5tcxus-11" value="" style="endArrow=none;html=1;rounded=0;exitX=0.5;exitY=0;exitDx=0;exitDy=0;" edge="1" parent="1" source="d4VZksIFXC954R5tcxus-7">
          <mxGeometry width="50" height="50" relative="1" as="geometry">
            <mxPoint x="150" y="303" as="sourcePoint" />
            <mxPoint x="80" y="183" as="targetPoint" />
          </mxGeometry>
        </mxCell>
        <mxCell id="d4VZksIFXC954R5tcxus-12" value="" style="endArrow=none;html=1;rounded=0;entryX=0;entryY=0.5;entryDx=0;entryDy=0;" edge="1" parent="1" target="d4VZksIFXC954R5tcxus-7">
          <mxGeometry width="50" height="50" relative="1" as="geometry">
            <mxPoint x="10" y="223" as="sourcePoint" />
            <mxPoint x="200" y="253" as="targetPoint" />
          </mxGeometry>
        </mxCell>
        <mxCell id="d4VZksIFXC954R5tcxus-13" value="" style="endArrow=none;html=1;rounded=0;entryX=0;entryY=0.5;entryDx=0;entryDy=0;" edge="1" parent="1" target="d4VZksIFXC954R5tcxus-9">
          <mxGeometry width="50" height="50" relative="1" as="geometry">
            <mxPoint x="10" y="283" as="sourcePoint" />
            <mxPoint x="200" y="253" as="targetPoint" />
          </mxGeometry>
        </mxCell>
        <mxCell id="d4VZksIFXC954R5tcxus-14" value="href:&#xa;&quot;Group&quot;&#xa;" style="swimlane;fontStyle=0;align=center;verticalAlign=top;childLayout=stackLayout;horizontal=1;startSize=50;horizontalStack=0;resizeParent=1;resizeLast=0;collapsible=1;marginBottom=0;rounded=0;shadow=0;strokeWidth=1;fontSize=11;fillColor=#d5e8d4;strokeColor=#82b366;" vertex="1" parent="1">
          <mxGeometry x="150" y="263" width="100" height="40" as="geometry">
            <mxRectangle x="130" y="380" width="160" height="26" as="alternateBounds" />
          </mxGeometry>
        </mxCell>
        <mxCell id="d4VZksIFXC954R5tcxus-15" value="" style="endArrow=none;html=1;rounded=0;entryX=0;entryY=0.5;entryDx=0;entryDy=0;exitX=1;exitY=0.5;exitDx=0;exitDy=0;" edge="1" parent="1" source="d4VZksIFXC954R5tcxus-9" target="d4VZksIFXC954R5tcxus-14">
          <mxGeometry width="50" height="50" relative="1" as="geometry">
            <mxPoint x="150" y="303" as="sourcePoint" />
            <mxPoint x="200" y="253" as="targetPoint" />
          </mxGeometry>
        </mxCell>
        <mxCell id="d4VZksIFXC954R5tcxus-16" value="Content Element:&#xa;&lt;div&gt;&#xa;" style="swimlane;fontStyle=0;align=center;verticalAlign=top;childLayout=stackLayout;horizontal=1;startSize=50;horizontalStack=0;resizeParent=1;resizeLast=0;collapsible=1;marginBottom=0;rounded=0;shadow=0;strokeWidth=1;fontSize=11;" vertex="1" parent="1">
          <mxGeometry x="360" y="203" width="100" height="40" as="geometry">
            <mxRectangle x="130" y="380" width="160" height="26" as="alternateBounds" />
          </mxGeometry>
        </mxCell>
        <mxCell id="d4VZksIFXC954R5tcxus-17" value="" style="endArrow=none;html=1;rounded=0;exitX=0.5;exitY=0;exitDx=0;exitDy=0;" edge="1" parent="1" source="d4VZksIFXC954R5tcxus-16">
          <mxGeometry width="50" height="50" relative="1" as="geometry">
            <mxPoint x="200" y="303" as="sourcePoint" />
            <mxPoint x="410" y="183" as="targetPoint" />
          </mxGeometry>
        </mxCell>
        <mxCell id="d4VZksIFXC954R5tcxus-18" value="Template Text:&#xa;&quot;{ getContent }&quot;&#xa;" style="swimlane;fontStyle=0;align=center;verticalAlign=top;childLayout=stackLayout;horizontal=1;startSize=50;horizontalStack=0;resizeParent=1;resizeLast=0;collapsible=1;marginBottom=0;rounded=0;shadow=0;strokeWidth=1;fontSize=11;" vertex="1" parent="1">
          <mxGeometry x="360" y="263" width="100" height="40" as="geometry">
            <mxRectangle x="130" y="380" width="160" height="26" as="alternateBounds" />
          </mxGeometry>
        </mxCell>
        <mxCell id="d4VZksIFXC954R5tcxus-19" value="" style="endArrow=none;html=1;rounded=0;entryX=0.5;entryY=1;entryDx=0;entryDy=0;exitX=0.5;exitY=0;exitDx=0;exitDy=0;" edge="1" parent="1" source="d4VZksIFXC954R5tcxus-18" target="d4VZksIFXC954R5tcxus-16">
          <mxGeometry width="50" height="50" relative="1" as="geometry">
            <mxPoint x="200" y="303" as="sourcePoint" />
            <mxPoint x="250" y="253" as="targetPoint" />
          </mxGeometry>
        </mxCell>
        <mxCell id="d4VZksIFXC954R5tcxus-20" value="" style="endArrow=none;html=1;rounded=0;" edge="1" parent="1">
          <mxGeometry width="50" height="50" relative="1" as="geometry">
            <mxPoint x="80" y="183" as="sourcePoint" />
            <mxPoint x="410" y="183" as="targetPoint" />
          </mxGeometry>
        </mxCell>
        <mxCell id="d4VZksIFXC954R5tcxus-21" value="" style="endArrow=none;html=1;rounded=0;" edge="1" parent="1">
          <mxGeometry width="50" height="50" relative="1" as="geometry">
            <mxPoint x="10" y="283" as="sourcePoint" />
            <mxPoint x="10" y="223" as="targetPoint" />
          </mxGeometry>
        </mxCell>
        <mxCell id="d4VZksIFXC954R5tcxus-22" value="" style="endArrow=none;dashed=1;html=1;dashPattern=1 3;strokeWidth=2;rounded=0;" edge="1" parent="1">
          <mxGeometry width="50" height="50" relative="1" as="geometry">
            <mxPoint x="-10" y="183" as="sourcePoint" />
            <mxPoint x="80" y="183" as="targetPoint" />
          </mxGeometry>
        </mxCell>
        <mxCell id="d4VZksIFXC954R5tcxus-24" value="" style="endArrow=none;html=1;rounded=0;entryX=0.5;entryY=1;entryDx=0;entryDy=0;" edge="1" parent="1">
          <mxGeometry width="50" height="50" relative="1" as="geometry">
            <mxPoint x="436" y="333" as="sourcePoint" />
            <mxPoint x="436" y="303" as="targetPoint" />
          </mxGeometry>
        </mxCell>
        <mxCell id="d4VZksIFXC954R5tcxus-25" value="" style="endArrow=none;html=1;rounded=0;" edge="1" parent="1">
          <mxGeometry width="50" height="50" relative="1" as="geometry">
            <mxPoint x="140" y="333" as="sourcePoint" />
            <mxPoint x="780" y="330" as="targetPoint" />
          </mxGeometry>
        </mxCell>
        <mxCell id="d4VZksIFXC954R5tcxus-26" value="" style="endArrow=none;html=1;rounded=0;exitX=0.5;exitY=0;exitDx=0;exitDy=0;" edge="1" parent="1">
          <mxGeometry width="50" height="50" relative="1" as="geometry">
            <mxPoint x="481" y="353" as="sourcePoint" />
            <mxPoint x="481" y="333" as="targetPoint" />
          </mxGeometry>
        </mxCell>
        <mxCell id="d4VZksIFXC954R5tcxus-27" value="" style="endArrow=none;html=1;rounded=0;entryX=0.5;entryY=0;entryDx=0;entryDy=0;" edge="1" parent="1">
          <mxGeometry width="50" height="50" relative="1" as="geometry">
            <mxPoint x="140" y="333" as="sourcePoint" />
            <mxPoint x="140" y="353" as="targetPoint" />
          </mxGeometry>
        </mxCell>
        <mxCell id="d4VZksIFXC954R5tcxus-29" value="" style="endArrow=none;dashed=1;html=1;dashPattern=1 3;strokeWidth=2;rounded=0;" edge="1" parent="1">
          <mxGeometry width="50" height="50" relative="1" as="geometry">
            <mxPoint x="11" y="335" as="sourcePoint" />
            <mxPoint x="11" y="284" as="targetPoint" />
          </mxGeometry>
        </mxCell>
        <mxCell id="d4VZksIFXC954R5tcxus-30" value="Element&#xa;&lt;div&gt;&#xa;" style="swimlane;fontStyle=0;align=center;verticalAlign=top;childLayout=stackLayout;horizontal=1;startSize=50;horizontalStack=0;resizeParent=1;resizeLast=0;collapsible=1;marginBottom=0;rounded=0;shadow=0;strokeWidth=1;fontSize=11;" vertex="1" parent="1">
          <mxGeometry x="90" y="350" width="100" height="40" as="geometry">
            <mxRectangle x="130" y="380" width="160" height="26" as="alternateBounds" />
          </mxGeometry>
        </mxCell>
        <mxCell id="d4VZksIFXC954R5tcxus-31" value="Group Name&#xa;&lt;h2&gt;" style="swimlane;fontStyle=0;align=center;verticalAlign=top;childLayout=stackLayout;horizontal=1;startSize=50;horizontalStack=0;resizeParent=1;resizeLast=0;collapsible=1;marginBottom=0;rounded=0;shadow=0;strokeWidth=1;fontSize=11;" vertex="1" parent="1">
          <mxGeometry x="90" y="410" width="100" height="40" as="geometry">
            <mxRectangle x="130" y="380" width="160" height="26" as="alternateBounds" />
          </mxGeometry>
        </mxCell>
        <mxCell id="d4VZksIFXC954R5tcxus-32" value="" style="endArrow=none;html=1;rounded=0;entryX=0.5;entryY=1;entryDx=0;entryDy=0;exitX=0.5;exitY=0;exitDx=0;exitDy=0;" edge="1" parent="1" source="d4VZksIFXC954R5tcxus-31" target="d4VZksIFXC954R5tcxus-30">
          <mxGeometry width="50" height="50" relative="1" as="geometry">
            <mxPoint x="-50" y="390" as="sourcePoint" />
            <mxPoint y="340" as="targetPoint" />
          </mxGeometry>
        </mxCell>
        <mxCell id="d4VZksIFXC954R5tcxus-33" value="element&#xa;&lt;button&gt;" style="swimlane;fontStyle=0;align=center;verticalAlign=top;childLayout=stackLayout;horizontal=1;startSize=50;horizontalStack=0;resizeParent=1;resizeLast=0;collapsible=1;marginBottom=0;rounded=0;shadow=0;strokeWidth=1;fontSize=11;" vertex="1" parent="1">
          <mxGeometry x="90" y="470" width="100" height="40" as="geometry">
            <mxRectangle x="130" y="380" width="160" height="26" as="alternateBounds" />
          </mxGeometry>
        </mxCell>
        <mxCell id="d4VZksIFXC954R5tcxus-34" value="" style="endArrow=none;html=1;rounded=0;entryX=0.5;entryY=1;entryDx=0;entryDy=0;exitX=0.5;exitY=0;exitDx=0;exitDy=0;" edge="1" parent="1" source="d4VZksIFXC954R5tcxus-33" target="d4VZksIFXC954R5tcxus-31">
          <mxGeometry width="50" height="50" relative="1" as="geometry">
            <mxPoint y="390" as="sourcePoint" />
            <mxPoint x="50" y="340" as="targetPoint" />
          </mxGeometry>
        </mxCell>
        <mxCell id="d4VZksIFXC954R5tcxus-36" value="Template Text:&#xa;&quot;{ editGroupName }&quot;&#xa;" style="swimlane;fontStyle=0;align=center;verticalAlign=top;childLayout=stackLayout;horizontal=1;startSize=50;horizontalStack=0;resizeParent=1;resizeLast=0;collapsible=1;marginBottom=0;rounded=0;shadow=0;strokeWidth=1;fontSize=11;" vertex="1" parent="1">
          <mxGeometry x="90" y="530" width="100" height="40" as="geometry">
            <mxRectangle x="130" y="380" width="160" height="26" as="alternateBounds" />
          </mxGeometry>
        </mxCell>
        <mxCell id="d4VZksIFXC954R5tcxus-37" value="" style="endArrow=none;html=1;rounded=0;entryX=0.5;entryY=1;entryDx=0;entryDy=0;exitX=0.5;exitY=0;exitDx=0;exitDy=0;" edge="1" parent="1" source="d4VZksIFXC954R5tcxus-36">
          <mxGeometry width="50" height="50" relative="1" as="geometry">
            <mxPoint y="450" as="sourcePoint" />
            <mxPoint x="140" y="510" as="targetPoint" />
          </mxGeometry>
        </mxCell>
        <mxCell id="d4VZksIFXC954R5tcxus-38" value="Element&#xa;&lt;div&gt;&#xa;" style="swimlane;fontStyle=0;align=center;verticalAlign=top;childLayout=stackLayout;horizontal=1;startSize=50;horizontalStack=0;resizeParent=1;resizeLast=0;collapsible=1;marginBottom=0;rounded=0;shadow=0;strokeWidth=1;fontSize=11;" vertex="1" parent="1">
          <mxGeometry x="431" y="353" width="100" height="40" as="geometry">
            <mxRectangle x="130" y="380" width="160" height="26" as="alternateBounds" />
          </mxGeometry>
        </mxCell>
        <mxCell id="d4VZksIFXC954R5tcxus-39" value="Group Member&#xa;&lt;ul&gt;" style="swimlane;fontStyle=0;align=center;verticalAlign=top;childLayout=stackLayout;horizontal=1;startSize=50;horizontalStack=0;resizeParent=1;resizeLast=0;collapsible=1;marginBottom=0;rounded=0;shadow=0;strokeWidth=1;fontSize=11;" vertex="1" parent="1">
          <mxGeometry x="431" y="413" width="100" height="40" as="geometry">
            <mxRectangle x="130" y="380" width="160" height="26" as="alternateBounds" />
          </mxGeometry>
        </mxCell>
        <mxCell id="d4VZksIFXC954R5tcxus-40" value="" style="endArrow=none;html=1;rounded=0;entryX=0.5;entryY=1;entryDx=0;entryDy=0;exitX=0.5;exitY=0;exitDx=0;exitDy=0;" edge="1" parent="1" source="d4VZksIFXC954R5tcxus-39" target="d4VZksIFXC954R5tcxus-38">
          <mxGeometry width="50" height="50" relative="1" as="geometry">
            <mxPoint x="291" y="393" as="sourcePoint" />
            <mxPoint x="341" y="343" as="targetPoint" />
          </mxGeometry>
        </mxCell>
        <mxCell id="d4VZksIFXC954R5tcxus-41" value="element&#xa;&lt;li&gt;" style="swimlane;fontStyle=0;align=center;verticalAlign=top;childLayout=stackLayout;horizontal=1;startSize=50;horizontalStack=0;resizeParent=1;resizeLast=0;collapsible=1;marginBottom=0;rounded=0;shadow=0;strokeWidth=1;fontSize=11;" vertex="1" parent="1">
          <mxGeometry x="550" y="470" width="100" height="40" as="geometry">
            <mxRectangle x="130" y="380" width="160" height="26" as="alternateBounds" />
          </mxGeometry>
        </mxCell>
        <mxCell id="d4VZksIFXC954R5tcxus-42" value="" style="endArrow=none;html=1;rounded=0;entryX=0.5;entryY=1;entryDx=0;entryDy=0;exitX=0.25;exitY=0;exitDx=0;exitDy=0;" edge="1" parent="1" source="d4VZksIFXC954R5tcxus-41" target="d4VZksIFXC954R5tcxus-39">
          <mxGeometry width="50" height="50" relative="1" as="geometry">
            <mxPoint x="371" y="393" as="sourcePoint" />
            <mxPoint x="421" y="343" as="targetPoint" />
          </mxGeometry>
        </mxCell>
        <mxCell id="d4VZksIFXC954R5tcxus-43" value="member name&#xa;&lt;span&gt;" style="swimlane;fontStyle=0;align=center;verticalAlign=top;childLayout=stackLayout;horizontal=1;startSize=50;horizontalStack=0;resizeParent=1;resizeLast=0;collapsible=1;marginBottom=0;rounded=0;shadow=0;strokeWidth=1;fontSize=11;" vertex="1" parent="1">
          <mxGeometry x="630" y="530" width="100" height="40" as="geometry">
            <mxRectangle x="130" y="380" width="160" height="26" as="alternateBounds" />
          </mxGeometry>
        </mxCell>
        <mxCell id="d4VZksIFXC954R5tcxus-44" value="" style="endArrow=none;html=1;rounded=0;entryX=0.5;entryY=1;entryDx=0;entryDy=0;exitX=0.25;exitY=0;exitDx=0;exitDy=0;" edge="1" parent="1" source="d4VZksIFXC954R5tcxus-43" target="d4VZksIFXC954R5tcxus-41">
          <mxGeometry width="50" height="50" relative="1" as="geometry">
            <mxPoint x="371" y="453" as="sourcePoint" />
            <mxPoint x="511" y="513" as="targetPoint" />
          </mxGeometry>
        </mxCell>
        <mxCell id="d4VZksIFXC954R5tcxus-45" value="profile pic&#xa;&lt;img&gt;" style="swimlane;fontStyle=0;align=center;verticalAlign=top;childLayout=stackLayout;horizontal=1;startSize=50;horizontalStack=0;resizeParent=1;resizeLast=0;collapsible=1;marginBottom=0;rounded=0;shadow=0;strokeWidth=1;fontSize=11;" vertex="1" parent="1">
          <mxGeometry x="500" y="530" width="100" height="40" as="geometry">
            <mxRectangle x="130" y="380" width="160" height="26" as="alternateBounds" />
          </mxGeometry>
        </mxCell>
        <mxCell id="d4VZksIFXC954R5tcxus-46" value="" style="endArrow=none;html=1;rounded=0;entryX=0.5;entryY=1;entryDx=0;entryDy=0;exitX=0.75;exitY=0;exitDx=0;exitDy=0;" edge="1" parent="1" source="d4VZksIFXC954R5tcxus-45" target="d4VZksIFXC954R5tcxus-41">
          <mxGeometry width="50" height="50" relative="1" as="geometry">
            <mxPoint x="482" y="527" as="sourcePoint" />
            <mxPoint x="418" y="510" as="targetPoint" />
          </mxGeometry>
        </mxCell>
        <mxCell id="d4VZksIFXC954R5tcxus-47" value="element&#xa;&lt;li&gt;" style="swimlane;fontStyle=0;align=center;verticalAlign=top;childLayout=stackLayout;horizontal=1;startSize=50;horizontalStack=0;resizeParent=1;resizeLast=0;collapsible=1;marginBottom=0;rounded=0;shadow=0;strokeWidth=1;fontSize=11;" vertex="1" parent="1">
          <mxGeometry x="310" y="470" width="100" height="40" as="geometry">
            <mxRectangle x="130" y="380" width="160" height="26" as="alternateBounds" />
          </mxGeometry>
        </mxCell>
        <mxCell id="d4VZksIFXC954R5tcxus-48" value="facilitator name&#xa;&lt;span&gt;" style="swimlane;fontStyle=0;align=center;verticalAlign=top;childLayout=stackLayout;horizontal=1;startSize=50;horizontalStack=0;resizeParent=1;resizeLast=0;collapsible=1;marginBottom=0;rounded=0;shadow=0;strokeWidth=1;fontSize=11;" vertex="1" parent="1">
          <mxGeometry x="390" y="530" width="100" height="40" as="geometry">
            <mxRectangle x="130" y="380" width="160" height="26" as="alternateBounds" />
          </mxGeometry>
        </mxCell>
        <mxCell id="d4VZksIFXC954R5tcxus-49" value="" style="endArrow=none;html=1;rounded=0;entryX=0.5;entryY=1;entryDx=0;entryDy=0;exitX=0.25;exitY=0;exitDx=0;exitDy=0;" edge="1" parent="1" source="d4VZksIFXC954R5tcxus-48" target="d4VZksIFXC954R5tcxus-47">
          <mxGeometry width="50" height="50" relative="1" as="geometry">
            <mxPoint x="131" y="453" as="sourcePoint" />
            <mxPoint x="271" y="513" as="targetPoint" />
          </mxGeometry>
        </mxCell>
        <mxCell id="d4VZksIFXC954R5tcxus-50" value="facilitator profile pic&#xa;&lt;img&gt;" style="swimlane;fontStyle=0;align=center;verticalAlign=top;childLayout=stackLayout;horizontal=1;startSize=50;horizontalStack=0;resizeParent=1;resizeLast=0;collapsible=1;marginBottom=0;rounded=0;shadow=0;strokeWidth=1;fontSize=11;" vertex="1" parent="1">
          <mxGeometry x="260" y="530" width="100" height="40" as="geometry">
            <mxRectangle x="130" y="380" width="160" height="26" as="alternateBounds" />
          </mxGeometry>
        </mxCell>
        <mxCell id="d4VZksIFXC954R5tcxus-51" value="" style="endArrow=none;html=1;rounded=0;entryX=0.5;entryY=1;entryDx=0;entryDy=0;exitX=0.75;exitY=0;exitDx=0;exitDy=0;" edge="1" parent="1" source="d4VZksIFXC954R5tcxus-50" target="d4VZksIFXC954R5tcxus-47">
          <mxGeometry width="50" height="50" relative="1" as="geometry">
            <mxPoint x="242" y="527" as="sourcePoint" />
            <mxPoint x="178" y="510" as="targetPoint" />
          </mxGeometry>
        </mxCell>
        <mxCell id="d4VZksIFXC954R5tcxus-52" value="" style="endArrow=none;html=1;rounded=0;entryX=0.5;entryY=1;entryDx=0;entryDy=0;exitX=0.75;exitY=0;exitDx=0;exitDy=0;" edge="1" parent="1" source="d4VZksIFXC954R5tcxus-47" target="d4VZksIFXC954R5tcxus-39">
          <mxGeometry width="50" height="50" relative="1" as="geometry">
            <mxPoint x="392" y="453" as="sourcePoint" />
            <mxPoint x="328" y="436" as="targetPoint" />
          </mxGeometry>
        </mxCell>
        <mxCell id="d4VZksIFXC954R5tcxus-53" value="Element&#xa;&lt;div&gt;" style="swimlane;fontStyle=0;align=center;verticalAlign=top;childLayout=stackLayout;horizontal=1;startSize=50;horizontalStack=0;resizeParent=1;resizeLast=0;collapsible=1;marginBottom=0;rounded=0;shadow=0;strokeWidth=1;fontSize=11;" vertex="1" parent="1">
          <mxGeometry x="730" y="350" width="100" height="40" as="geometry">
            <mxRectangle x="130" y="380" width="160" height="26" as="alternateBounds" />
          </mxGeometry>
        </mxCell>
        <mxCell id="d4VZksIFXC954R5tcxus-54" value="" style="endArrow=none;html=1;rounded=0;entryX=0.5;entryY=1;entryDx=0;entryDy=0;exitX=0.5;exitY=0;exitDx=0;exitDy=0;" edge="1" parent="1" source="d4VZksIFXC954R5tcxus-53">
          <mxGeometry width="50" height="50" relative="1" as="geometry">
            <mxPoint x="590" y="330" as="sourcePoint" />
            <mxPoint x="780" y="330" as="targetPoint" />
          </mxGeometry>
        </mxCell>
        <mxCell id="d4VZksIFXC954R5tcxus-55" value="element&#xa;&lt;button&gt;" style="swimlane;fontStyle=0;align=center;verticalAlign=top;childLayout=stackLayout;horizontal=1;startSize=50;horizontalStack=0;resizeParent=1;resizeLast=0;collapsible=1;marginBottom=0;rounded=0;shadow=0;strokeWidth=1;fontSize=11;" vertex="1" parent="1">
          <mxGeometry x="730" y="410" width="100" height="40" as="geometry">
            <mxRectangle x="130" y="380" width="160" height="26" as="alternateBounds" />
          </mxGeometry>
        </mxCell>
        <mxCell id="d4VZksIFXC954R5tcxus-56" value="" style="endArrow=none;html=1;rounded=0;entryX=0.5;entryY=1;entryDx=0;entryDy=0;exitX=0.5;exitY=0;exitDx=0;exitDy=0;" edge="1" parent="1" source="d4VZksIFXC954R5tcxus-55" target="d4VZksIFXC954R5tcxus-53">
          <mxGeometry width="50" height="50" relative="1" as="geometry">
            <mxPoint x="640" y="330" as="sourcePoint" />
            <mxPoint x="690" y="280" as="targetPoint" />
          </mxGeometry>
        </mxCell>
        <mxCell id="d4VZksIFXC954R5tcxus-57" value="Template Text:&#xa;&quot;{getInvite}&quot;&#xa;" style="swimlane;fontStyle=0;align=center;verticalAlign=top;childLayout=stackLayout;horizontal=1;startSize=50;horizontalStack=0;resizeParent=1;resizeLast=0;collapsible=1;marginBottom=0;rounded=0;shadow=0;strokeWidth=1;fontSize=11;" vertex="1" parent="1">
          <mxGeometry x="730" y="470" width="100" height="40" as="geometry">
            <mxRectangle x="130" y="380" width="160" height="26" as="alternateBounds" />
          </mxGeometry>
        </mxCell>
        <mxCell id="d4VZksIFXC954R5tcxus-58" value="" style="endArrow=none;html=1;rounded=0;entryX=0.5;entryY=1;entryDx=0;entryDy=0;exitX=0.5;exitY=0;exitDx=0;exitDy=0;" edge="1" parent="1" source="d4VZksIFXC954R5tcxus-57">
          <mxGeometry width="50" height="50" relative="1" as="geometry">
            <mxPoint x="640" y="390" as="sourcePoint" />
            <mxPoint x="780" y="450" as="targetPoint" />
          </mxGeometry>
        </mxCell>
      </root>
    </mxGraphModel>
  </diagram>
</mxfile>
